<?xml version="1.0" encoding="utf-8"?>
<!-- Generator: Adobe Illustrator 21.1.0, SVG Export Plug-In . SVG Version: 6.00 Build 0)  -->
<svg version="1.1" id="Layer_1" xmlns="http://www.w3.org/2000/svg" xmlns:xlink="http://www.w3.org/1999/xlink" x="0px" y="0px"
	 viewBox="0 0 509.3 179.4" style="enable-background:new 0 0 509.3 179.4;" xml:space="preserve">
<style type="text/css">
	.st0{fill:#FFFFFF;}
	.st1{fill:none;}
</style>
<g id="K6LRkU_1_">
	<g>
		<path class="st0" d="M21.6,0c155.5,0,311,0,466.5,0c0.6,0.1,1.1,0.2,1.7,0.3c5.7,1.1,10.5,3.8,14.1,8.3c3.5,4.3,5.4,9.1,5.4,14.7
			c0,44.2,0,88.5,0,132.7c0,0.8,0.1,1.6-0.1,2.3c-0.8,5.9-3.3,10.8-7.7,14.8c-4.6,4.2-10.1,6.2-16.3,6.2c-153.6,0-307.2,0-460.7,0
			c-1.9,0-3.7-0.2-5.5-0.6c-11-2.3-19-12.1-19-23.2c0-44,0-88,0-131.9c0-1.1,0.1-2.2,0.2-3.3C2,10.6,7.7,4.1,17.1,1
			C18.5,0.5,20.1,0.3,21.6,0z M141.4,67.3c0-0.2,0-0.3-0.1-0.3c-0.1-0.2-0.2-0.3-0.3-0.5c-3.3-4.5-7.5-7.8-12.8-9.9
			c-2.6-1-5.3-1.7-8-2c-2.1-0.2-4.2-0.4-6.3-0.2c-3.6,0.3-7.1,1.3-10.5,2.6c-2.9,1-5.8,2-8.7,3c-1.2,0.4-2.4,0.4-3.6,0
			c-2.7-0.9-5.4-1.8-8.1-2.8c-4.2-1.5-8.3-2.8-12.9-2.5c-2.8,0.2-5.5,0.7-8.1,1.6c-5.3,1.9-9.8,5-13.4,9.3c-3.2,3.8-5.6,8.2-7.1,13
			c-1,3.3-1.7,6.8-1.9,10.3c-0.2,3.4-0.2,6.8,0.1,10.2c0.4,4.8,1.4,9.5,2.7,14.1c1.8,6,4.1,11.8,7.2,17.3c2.1,3.8,4.7,7.4,7.3,10.9
			c2.2,2.9,4.7,5.7,7.7,7.9c3.7,2.8,7.8,3.7,12.3,2.5c2.4-0.7,4.7-1.5,7-2.4c2.7-1,5.5-1.9,8.4-2.2c4.5-0.5,8.7,0.5,12.8,2.2
			c2.2,0.9,4.4,1.8,6.8,2.2c3.4,0.7,6.7,0.6,9.9-0.9c3-1.4,5.4-3.5,7.4-5.9c2-2.3,3.8-4.7,5.6-7.2c4.2-5.8,7.3-12.2,9.6-19
			c0.1-0.3,0.1-0.6,0.2-0.8c-10.1-5.2-16.4-12.9-17.1-24.5C126.9,81.9,131.8,73.3,141.4,67.3z M231.4,127.9c0.1,0,0.2-0.1,0.2-0.1
			c0.1,0.1,0.2,0.2,0.3,0.3c2.2,3,5.2,4.4,8.8,4.7c6.3,0.5,11.8-2.6,14.5-8.3c2.3-4.9,2.6-10.1,1.3-15.3c-0.9-3.5-2.6-6.4-5.5-8.6
			c-5.5-4.2-14.8-3.5-19.2,2.8c-0.2,0.3-0.4,0.6-0.8,1c-0.1-2.1-0.2-3.9-0.3-5.8c-1,0-1.9,0-2.8,0c-0.9,0-1.7,0-2.6,0
			c0,0.4,0,0.7,0,0.9c0.1,4.9,0.2,9.8,0.2,14.7c0,10,0,20.1,0,30.1c0,0.4,0,0.9,0,1.4c2.1,0,4,0,6,0
			C231.4,139.8,231.4,133.9,231.4,127.9z M270.8,127.6c0.3,0.4,0.4,0.5,0.5,0.6c2.2,3,5.3,4.3,8.8,4.6c6.4,0.5,11.9-2.9,14.5-8.7
			c1.6-3.4,2-7.1,1.8-10.8c-0.2-3.2-1.1-6.2-2.8-8.9c-5.4-8.7-17.8-8.1-22.8-0.7c-0.2,0.2-0.4,0.4-0.7,0.8c-0.1-2-0.2-3.9-0.3-5.7
			c-1.8,0-3.6,0-5.4,0c0.5,15.7,0.1,31.4,0.3,47.1c2.1,0,4,0,6,0C270.8,139.8,270.8,133.8,270.8,127.6z M190.9,117.5
			c0.3,0,0.5-0.1,0.7-0.1c5,0,10,0,15,0c0.7,0,1,0.3,1.2,0.9c0.8,2.3,1.6,4.7,2.4,7c0.8,2.3,1.5,4.5,2.3,6.7c2.2,0,4.2,0,6.4,0
			c-5.3-15.6-10.6-31.1-15.9-46.5c-2.5,0-4.9,0-7.3,0c-5.3,15.5-10.5,31-15.8,46.6c2.2,0,4.2,0,6.2,0
			C187.6,127.3,189.3,122.4,190.9,117.5z M343.2,87.1c-0.7-0.3-1.4-0.6-2-0.9c-3.8-1.4-7.8-1.7-11.8-1.1c-2.5,0.4-4.9,1.3-7,2.9
			c-5.8,4.3-6.6,13.6-0.3,18.6c0.8,0.6,1.7,1.3,2.6,1.7c1.7,0.9,3.5,1.6,5.2,2.4c1.9,0.8,3.8,1.6,5.5,2.8c1.2,0.9,2.3,2,2.8,3.4
			c1.7,4.1-0.1,8.5-4.2,10.1c-1,0.4-2.1,0.7-3.1,0.8c-4,0.4-7.9-0.4-11.5-2.2c-0.4-0.2-0.7-0.4-1.2-0.6c-0.5,1.7-1,3.3-1.5,5.1
			c0.8,0.4,1.4,0.8,2.2,1.1c4.8,1.9,9.8,2.4,14.9,1.4c2.6-0.5,5.1-1.6,7.1-3.4c3-2.7,4.2-6,4.1-10c-0.1-3.6-1.4-6.6-4.2-8.9
			c-1.8-1.5-3.8-2.6-5.9-3.5c-1.7-0.7-3.3-1.4-5-2.1c-1.4-0.6-2.8-1.4-4-2.5c-3.5-3.3-2.8-8.8,1.5-11c1-0.5,2.2-0.9,3.3-1
			c3.4-0.4,6.7,0.1,9.8,1.6c0.3,0.1,0.6,0.3,1,0.4C342.1,90.3,342.7,88.8,343.2,87.1z M406,115.3c-0.2-1.6-0.3-3.3-0.7-4.9
			c-1.3-5.5-4.4-9.4-9.7-11.4c-2.7-1-5.5-1.2-8.3-0.8c-6.5,0.9-10.9,4.4-13.1,10.5c-1.5,4.2-1.6,8.5-0.4,12.7
			c1.4,5.1,4.6,8.7,9.5,10.5c2.7,1,5.5,1.3,8.4,0.8c5.7-0.9,10-3.8,12.5-9.1C405.4,121,405.9,118.2,406,115.3z M438.9,116.5
			c2.7,0,5.3,0,7.9,0c2.6,0,5.2,0,7.7,0c2.6,0,5.2,0,7.8,0c0.5-3.5,0.1-6.8-1.1-10c-1.5-3.9-4.1-6.7-8.2-7.9
			c-2.5-0.7-5.1-0.8-7.6-0.2c-4.6,1-8,3.7-10.1,7.8c-2.3,4.5-2.8,9.3-1.9,14.2c1.3,6.6,5.6,10.9,12,12.2c4.2,0.8,8.3,0.4,12.4-0.7
			c1-0.2,1.9-0.5,2.8-1.1c-0.3-1.4-0.7-2.8-1-4.1c-0.2,0-0.2,0-0.3,0c-0.1,0-0.2,0.1-0.3,0.1c-3.5,1.3-7.1,1.7-10.8,1.4
			C442.6,127.4,438.4,122.4,438.9,116.5z M92.1,53c0.1,0,0.2,0.1,0.2,0.1c3.5,0.2,6.8-0.4,10-1.9c3.8-1.8,6.8-4.5,9.4-7.8
			c4.4-5.7,6.7-12,6.4-19.2c0-0.3-0.1-0.5-0.1-0.8c-0.7,0-1.4-0.1-2.1,0c-1.6,0.4-3.3,0.7-4.9,1.4c-4.4,1.7-8.3,4.1-11.5,7.6
			c-4.2,4.7-7,10-7.5,16.4C91.8,50.2,91.8,51.6,92.1,53z M368.4,127.6c-1.4,0.1-2.7,0.2-3.9,0.2c-2,0-3.2-1-3.7-2.9
			c-0.3-1-0.4-2-0.4-3.1c0-5.8,0-11.6,0-17.4c0-0.3,0-0.7,0.1-1.1c2.9,0,5.7,0,8.6,0c0-1.6,0-3.1,0-4.7c-2.9,0-5.7,0-8.7,0
			c0-3.2,0-6.3,0-9.6c-2.1,0.5-4,1.1-6,1.6c0,2.7,0,5.3,0,8.1c-1.8,0-3.4,0-5,0c0,1.6,0,3.1,0,4.7c1.7,0,3.4,0,5.1,0
			c0,0.6,0,1,0,1.5c0,5.7,0,11.5,0,17.2c0,1.9,0.2,3.8,0.8,5.7c0.8,2.4,2.5,3.9,4.9,4.7c1.7,0.5,3.5,0.6,5.3,0.4
			c1.1-0.1,2.2-0.4,3.4-0.6C368.6,130.5,368.5,129.1,368.4,127.6z M174.7,69.3c0.2,0,0.4,0.1,0.5,0.1c2.8,0.1,5.5,0.2,8.3,0.2
			c1.9,0,3.7-0.4,5.5-1c4.2-1.3,7.1-4.1,8.6-8.2c1.2-3.4,1.4-6.9,0.5-10.5c-1.1-4.6-4-7.6-8.5-9c-1.9-0.6-3.9-0.9-5.9-0.9
			c-2.1,0-4.2,0.1-6.3,0.2c-0.9,0.1-1.8,0.2-2.7,0.4C174.7,50.2,174.7,59.7,174.7,69.3z M413.2,98.7c0,0.4,0,0.7,0,1
			c0.1,1.7,0.2,3.3,0.2,5c0,8.7,0,17.4,0,26.1c0,0.4,0,0.9,0,1.4c2.1,0,4,0,6,0c0-0.5,0-0.9,0-1.3c0-5.3,0-10.6,0-15.9
			c0-2.4,0.4-4.8,1.6-6.9c1.6-2.8,3.9-4.2,7.2-4.2c0.6,0,1.1,0,1.7,0c0-1.8,0-3.7,0-5.6c-0.2-0.1-0.4-0.1-0.6-0.1
			c-2.2-0.2-4.2,0.3-6,1.5c-1.8,1.2-3.1,2.9-3.9,4.9c-0.1,0.3-0.3,0.5-0.4,0.8c-0.1,0-0.1-0.1-0.2-0.1c-0.1-2.1-0.2-4.2-0.3-6.4
			C416.7,98.7,415,98.7,413.2,98.7z M345.1,51c-0.3-0.2-0.4-0.2-0.4-0.3c-1.5-1.9-3.5-2.6-5.8-2.6c-3.9,0-6.7,1.8-8.4,5.3
			c-1.5,2.9-1.6,6.1-0.9,9.2c0.9,4,4.1,7.7,9.4,7.2c2.4-0.2,4.3-1.2,5.8-3.1c0.1-0.2,0.3-0.4,0.6-0.7c0.1,1.3,0.2,2.3,0.2,3.4
			c1.2,0.1,2.3,0.1,3.2,0c0-10.2,0-20.3,0-30.5c-1.3,0-2.5,0-3.8,0C345.1,42.9,345.1,46.9,345.1,51z M230.9,65.5
			c-1.5-5.7-2.9-11.3-4.4-16.9c-1.4,0-2.6,0-3.9,0c2.1,7,4.2,13.8,6.3,20.7c1.2,0,2.3,0,3.5,0c1.8-5.5,3.9-10.8,5.2-16.4
			c1.7,5.5,3.4,10.9,5.1,16.5c0.7,0,1.2,0,1.8,0c0.6,0,1.1,0,1.7,0c2.3-7,4.5-13.9,6.7-20.8c-1.4,0-2.5,0-3.8,0
			c-1.6,5.6-3.1,11.2-4.7,17c-1.5-5.8-3.4-11.4-5.1-17c-1.2,0-2.2,0-3.3,0C234.5,54.2,232.7,59.8,230.9,65.5z M437.3,69.4
			c0-0.6,0-1,0-1.4c0-3.6,0-7.2,0-10.9c0-1.4,0.4-2.7,1.3-3.9c1.5-1.8,3.4-2.4,5.6-1.9c2.1,0.5,3,2.2,3.3,4.2
			c0.1,0.9,0.2,1.8,0.2,2.6c0,3.3,0,6.5,0,9.8c0,0.4,0,0.8,0,1.3c1.3,0,2.5,0,3.7,0c0-0.3,0-0.5,0-0.7c0-4.2,0.1-8.3,0-12.5
			c0-1.2-0.3-2.4-0.7-3.6c-0.8-2.2-2.3-3.6-4.6-4.2c-3.1-0.8-5.8,0.2-7.9,2.5c-0.2,0.2-0.4,0.5-0.8,1c0-1.7,0-3.1,0-4.5
			c0-1.4,0-2.8,0-4.3c0-1.4,0-2.8,0-4.3c-1.2,0-2.2,0-3.2,0c-0.1,0-0.3,0-0.5,0.1c0,10.2,0,20.3,0,30.5c0.2,0,0.4,0.1,0.6,0.1
			C435.2,69.4,436.1,69.4,437.3,69.4z M372.9,69.9c4.3,0.2,8.5-2.4,9.9-6.8c0.6-1.9,0.8-3.9,0.5-5.9c-0.2-1.9-0.8-3.6-1.9-5.1
			c-2.1-2.8-5-4-8.4-3.9c-4.8,0.1-8.2,3-9.4,7c-0.6,2-0.7,4-0.5,6C363.8,66.8,368.2,70,372.9,69.9z M211.2,69.9
			c4.2,0.2,8.4-2.4,9.9-6.9c0.6-1.9,0.8-3.9,0.5-5.8c-0.3-2.7-1.4-5.1-3.5-6.9c-2.1-1.8-4.6-2.4-7.3-2.2c-4.2,0.4-7.2,2.4-8.8,6.4
			c-0.8,2.1-1,4.3-0.7,6.6C202.1,66.8,206.5,70,211.2,69.9z M286.5,59.1c0.1,1,0.1,2,0.4,3c0.8,3.7,3,6.3,6.7,7.4
			c1.3,0.4,2.7,0.5,4,0.4c4.2-0.3,7.2-2.4,8.7-6.3c1.1-2.9,1.2-5.9,0.2-8.8c-1-3-3-5.1-6-6.1c-1.4-0.5-2.8-0.6-4.2-0.5
			c-4.1,0.4-7.1,2.3-8.8,6.1C286.8,55.8,286.5,57.4,286.5,59.1z M471.7,65.9c-2.1,0.8-4,1.2-6.1,1.1c-2-0.1-3.8-0.6-5.1-2.2
			c-1.3-1.4-1.7-3.2-1.7-5.2c5,0,9.8,0,14.7,0c0.3-3-0.1-5.8-1.8-8.2c-1-1.5-2.5-2.5-4.3-3c-4.4-1.1-9.1,0.6-11.2,5.4
			c-1.2,2.7-1.4,5.6-0.8,8.5c0.9,4.1,3.5,6.7,7.7,7.4c1.8,0.3,3.7,0.1,5.5,0c1.3-0.1,2.6-0.4,3.7-1.1
			C472.1,67.7,472,66.9,471.7,65.9z M255.9,48.6c0,6.9,0,13.8,0,20.8c1.3,0.1,2.5,0.1,3.8,0c0-2.1,0-4.1,0-6.1c0-2.3,0-4.6,0.1-6.9
			c0.1-1.9,1-3.3,2.6-4.3c3.1-1.9,6.6-0.5,7.3,3.1c0.2,1,0.3,2,0.3,3c0,3.3,0,6.7,0,10c0,0.4,0,0.8,0.1,1.2c1.3,0,2.5,0,3.6,0
			c0.1-0.2,0.1-0.2,0.1-0.3c0-4.3,0.1-8.7,0-13c0-2-0.6-4-2-5.5c-3-3.4-8.8-3.1-11.7,0.6c-0.2,0.3-0.4,0.5-0.7,0.8
			c-0.1-1.2-0.2-2.2-0.3-3.2C257.9,48.6,256.9,48.6,255.9,48.6z M321.8,56c-0.4,0-0.7,0-1.1,0.1c-1.5,0.2-3,0.2-4.5,0.5
			c-1.9,0.4-3.7,1.2-5.2,2.6c-2.9,2.9-2.4,9.2,2.8,10.4c2.8,0.6,5.3,0.1,7.5-1.9c0.3-0.2,0.5-0.5,0.9-0.9c0.1,1,0.3,1.7,0.4,2.5
			c1.2,0,2.2,0,3.3,0c-0.1-1.8-0.2-3.5-0.2-5.1c0-2.7,0-5.4,0-8.1c0-1.1-0.2-2.2-0.5-3.3c-0.7-2.3-2.2-3.7-4.5-4.4c-2-0.6-4-0.5-6,0
			c-1.3,0.3-2.6,0.7-3.7,1.5c0.3,0.8,0.5,1.5,0.8,2.4c0.4-0.2,0.7-0.3,1-0.5c1.6-0.7,3.3-1.1,5-1C320.6,51.1,322.3,53.2,321.8,56z
			 M405.1,69.3c0-0.2,0.1-0.4,0.1-0.6c0-4.3,0.1-8.6,0-12.9c0-1.2-0.4-2.4-0.8-3.5c-0.8-2.1-2.3-3.5-4.5-4c-3.4-0.8-6.2,0.1-8.5,2.8
			c-0.2,0.2-0.3,0.4-0.6,0.7c-0.1-1.2-0.2-2.2-0.3-3.2c-1.2,0-2.3,0-3.2,0c0,7,0.1,13.8,0.1,20.7c1.3,0,2.4,0,3.7,0
			c0-0.5,0-0.9,0-1.3c0-3.6,0-7.2,0-10.7c0-1.6,0.4-3.1,1.5-4.3c1.5-1.6,3.4-2.1,5.5-1.6c2,0.5,2.9,2.1,3.2,4
			c0.1,0.9,0.2,1.8,0.2,2.6c0,3.3,0,6.7,0,10c0,0.4,0,0.8,0,1.2C402.7,69.3,403.9,69.3,405.1,69.3z M425,48.5c0-2.1,0-4,0-6
			c-1.3,0.4-2.5,0.7-3.7,1c0,1.7,0,3.3,0,5c-1.1,0-2.1,0-3.1,0c0,1,0,1.9,0,2.9c1.1,0,2.1,0,3.2,0c0,0.5,0,1,0,1.4
			c0,3.2,0,6.5,0,9.7c0,1,0.1,2,0.2,3c0.3,1.7,1,3.2,2.7,3.9c2,0.8,4,0.6,6,0.1c0-0.7-0.1-1.2-0.1-1.8c0-0.3-0.1-0.7-0.2-1
			c-0.8,0.1-1.4,0.1-2.1,0.1c-1.5,0-2.4-0.7-2.7-2.2c-0.1-0.7-0.2-1.4-0.2-2.1c0-3.4,0-6.8,0-10.3c0-0.2,0-0.5,0.1-0.8
			c1.8-0.2,3.6,0.1,5.4-0.1c0-1,0-1.8,0-2.8C428.7,48.5,426.9,48.5,425,48.5z M278.9,38.8c0,10.2,0,20.3,0,30.5c1.3,0,2.4,0,3.7,0
			c0-10.2,0-20.3,0-30.5C281.3,38.8,280.1,38.8,278.9,38.8z"/>
		<path class="st1" d="M141.4,67.3c-9.6,6-14.5,14.6-13.8,26.2c0.7,11.6,7,19.3,17.1,24.5c0,0.2-0.1,0.5-0.2,0.8
			c-2.3,6.8-5.4,13.1-9.6,19c-1.8,2.5-3.6,4.9-5.6,7.2c-2.1,2.4-4.5,4.5-7.4,5.9c-3.2,1.5-6.5,1.6-9.9,0.9c-2.3-0.5-4.6-1.3-6.8-2.2
			c-4.1-1.7-8.3-2.7-12.8-2.2c-2.9,0.3-5.7,1.1-8.4,2.2c-2.3,0.9-4.6,1.7-7,2.4c-4.5,1.3-8.6,0.3-12.3-2.5c-3-2.2-5.5-4.9-7.7-7.9
			c-2.7-3.5-5.2-7.1-7.3-10.9c-3.1-5.5-5.4-11.3-7.2-17.3c-1.4-4.6-2.3-9.3-2.7-14.1c-0.3-3.4-0.3-6.8-0.1-10.2
			c0.2-3.5,0.8-6.9,1.9-10.3c1.5-4.8,3.8-9.1,7.1-13c3.6-4.3,8.1-7.4,13.4-9.3c2.6-1,5.3-1.4,8.1-1.6c4.5-0.4,8.7,1,12.9,2.5
			c2.7,0.9,5.4,1.9,8.1,2.8c1.2,0.4,2.4,0.4,3.6,0c2.9-1,5.8-2,8.7-3c3.4-1.2,6.9-2.3,10.5-2.6c2.1-0.2,4.2,0,6.3,0.2
			c2.7,0.3,5.4,1,8,2c5.2,2.1,9.5,5.3,12.8,9.9c0.1,0.2,0.2,0.3,0.3,0.5C141.4,67,141.4,67.1,141.4,67.3z"/>
		<path class="st1" d="M231.4,127.9c0,5.9,0,11.9,0,17.9c-2,0-3.9,0-6,0c0-0.5,0-0.9,0-1.4c0-10,0-20.1,0-30.1
			c0-4.9-0.1-9.8-0.2-14.7c0-0.3,0-0.5,0-0.9c0.9,0,1.8,0,2.6,0c0.9,0,1.8,0,2.8,0c0.1,1.9,0.2,3.7,0.3,5.8c0.4-0.5,0.6-0.7,0.8-1
			c4.4-6.3,13.8-7.1,19.2-2.8c2.9,2.2,4.6,5.1,5.5,8.6c1.3,5.2,1.1,10.4-1.3,15.3c-2.7,5.7-8.2,8.8-14.5,8.3
			c-3.6-0.3-6.6-1.7-8.8-4.7c-0.1-0.1-0.2-0.2-0.3-0.3C231.5,127.9,231.5,127.9,231.4,127.9z M231.4,115.6c0,0.8,0,1.7,0,2.5
			c0.1,1,0.1,2,0.4,3c1.2,4.4,5.4,7.8,11.1,6.7c3.4-0.6,5.7-2.8,7-5.9c1.2-2.9,1.4-6,1.1-9.2c-0.3-2.2-0.9-4.2-2.2-6
			c-1.7-2.4-4-3.8-7-3.9c-4.5-0.3-8.5,2.7-9.8,7.3C231.3,112,231.4,113.8,231.4,115.6z"/>
		<path class="st1" d="M270.8,127.6c0,6.2,0,12.1,0,18.2c-2,0-3.9,0-6,0c-0.2-15.7,0.2-31.3-0.3-47.1c1.8,0,3.6,0,5.4,0
			c0.1,1.9,0.2,3.7,0.3,5.7c0.3-0.4,0.5-0.6,0.7-0.8c5-7.4,17.4-8,22.8,0.7c1.7,2.7,2.6,5.8,2.8,8.9c0.2,3.7-0.2,7.4-1.8,10.8
			c-2.7,5.9-8.1,9.2-14.5,8.7c-3.6-0.3-6.6-1.6-8.8-4.6C271.3,128.1,271.1,128,270.8,127.6z M280.2,128.1c0.7-0.1,1.4-0.1,2.1-0.2
			c3.3-0.6,5.5-2.6,6.8-5.6c1.2-2.6,1.5-5.4,1.3-8.2c-0.2-2.5-0.8-4.9-2.2-7.1c-3.2-4.8-9.8-5.5-14.1-1.5c-2.1,1.9-3.1,4.4-3.3,7.2
			c-0.1,2.2-0.1,4.5,0,6.7C271,124.1,275.3,128.2,280.2,128.1z"/>
		<path class="st1" d="M190.9,117.5c-1.6,4.9-3.2,9.8-4.8,14.6c-2.1,0-4.1,0-6.2,0c5.3-15.6,10.6-31,15.8-46.6c2.4,0,4.8,0,7.3,0
			c5.3,15.5,10.6,30.9,15.9,46.5c-2.2,0-4.3,0-6.4,0c-0.8-2.2-1.5-4.5-2.3-6.7c-0.8-2.3-1.6-4.7-2.4-7c-0.2-0.6-0.5-0.9-1.2-0.9
			c-5,0-10,0-15,0C191.4,117.5,191.2,117.5,190.9,117.5z M206.1,112.7c-2.3-7.3-5.2-14.3-7-21.7c-0.2,0.3-0.3,0.6-0.4,1
			c-0.5,1.8-0.9,3.6-1.5,5.4c-1.5,4.7-3.1,9.4-4.7,14.1c-0.1,0.4-0.2,0.8-0.3,1.2C196.9,112.7,201.5,112.7,206.1,112.7z"/>
		<path class="st1" d="M343.2,87.1c-0.6,1.7-1.1,3.3-1.7,4.9c-0.4-0.2-0.7-0.3-1-0.4c-3.1-1.4-6.4-2-9.8-1.6c-1.1,0.1-2.3,0.5-3.3,1
			c-4.3,2.2-5,7.7-1.5,11c1.2,1.1,2.5,1.9,4,2.5c1.6,0.7,3.3,1.4,5,2.1c2.1,0.9,4.2,2,5.9,3.5c2.7,2.3,4.1,5.3,4.2,8.9
			c0.1,4-1.2,7.3-4.1,10c-2,1.8-4.5,2.9-7.1,3.4c-5.1,1-10.1,0.5-14.9-1.4c-0.7-0.3-1.4-0.7-2.2-1.1c0.5-1.7,1-3.3,1.5-5.1
			c0.5,0.2,0.9,0.4,1.2,0.6c3.6,1.9,7.5,2.6,11.5,2.2c1.1-0.1,2.1-0.4,3.1-0.8c4.1-1.7,5.9-6,4.2-10.1c-0.6-1.4-1.6-2.5-2.8-3.4
			c-1.7-1.2-3.6-2-5.5-2.8c-1.8-0.7-3.5-1.5-5.2-2.4c-0.9-0.5-1.8-1.1-2.6-1.7c-6.3-4.9-5.5-14.2,0.3-18.6c2.1-1.5,4.4-2.5,7-2.9
			c4-0.6,8-0.3,11.8,1.1C341.9,86.4,342.5,86.7,343.2,87.1z"/>
		<path class="st1" d="M406,115.3c-0.1,2.9-0.6,5.7-1.8,8.3c-2.5,5.3-6.8,8.2-12.5,9.1c-2.9,0.4-5.7,0.2-8.4-0.8
			c-5-1.8-8.1-5.5-9.5-10.5c-1.2-4.3-1.1-8.5,0.4-12.7c2.2-6.1,6.7-9.6,13.1-10.5c2.8-0.4,5.6-0.2,8.3,0.8c5.4,2,8.5,5.9,9.7,11.4
			C405.7,112,405.8,113.6,406,115.3z M399.6,116.7c0-4.4-0.8-7.6-2.4-9.9c-2.2-3.4-5.6-4.7-9.7-4c-3.3,0.6-5.5,2.7-6.8,5.6
			c-1.6,3.5-1.9,7.3-1,11c0.5,2.4,1.6,4.6,3.4,6.3c2.5,2.4,5.5,3.1,8.8,2.2c2.6-0.7,4.5-2.5,5.8-4.8
			C399.1,120.8,399.6,118.1,399.6,116.7z"/>
		<path class="st1" d="M438.9,116.5c-0.5,5.9,3.7,10.9,9.3,11.5c3.7,0.4,7.3,0,10.8-1.4c0.1,0,0.2-0.1,0.3-0.1c0.1,0,0.1,0,0.3,0
			c0.3,1.4,0.7,2.7,1,4.1c-0.9,0.6-1.9,0.9-2.8,1.1c-4.1,1.1-8.2,1.5-12.4,0.7c-6.4-1.3-10.7-5.6-12-12.2c-0.9-4.9-0.5-9.7,1.9-14.2
			c2.2-4.2,5.5-6.9,10.1-7.8c2.6-0.5,5.1-0.5,7.6,0.2c4.1,1.2,6.7,4,8.2,7.9c1.2,3.2,1.6,6.5,1.1,10c-2.6,0.1-5.2,0-7.8,0
			c-2.6,0-5.2,0-7.7,0C444.2,116.5,441.6,116.5,438.9,116.5z M438.9,112.2c6,0,11.9,0,17.9,0c-0.1-1.1-0.2-2.2-0.4-3.1
			c-0.7-3.1-2.4-5.5-5.7-6.3c-3.5-0.9-6.6-0.1-9,2.8C440,107.3,439.2,109.6,438.9,112.2z"/>
		<path class="st1" d="M92.1,53c-0.3-1.4-0.3-2.8-0.2-4.2c0.5-6.4,3.3-11.7,7.5-16.4c3.2-3.6,7.1-5.9,11.5-7.6
			c1.6-0.6,3.2-1,4.9-1.4c0.6-0.1,1.4,0,2.1,0c0,0.3,0.1,0.6,0.1,0.8c0.3,7.2-1.9,13.6-6.4,19.2c-2.6,3.3-5.6,6-9.4,7.8
			c-3.2,1.5-6.5,2.1-10,1.9C92.3,53.1,92.2,53,92.1,53z"/>
		<path class="st1" d="M368.4,127.6c0.1,1.4,0.2,2.9,0.3,4.5c-1.2,0.2-2.3,0.5-3.4,0.6c-1.8,0.2-3.5,0.2-5.3-0.4
			c-2.4-0.8-4-2.3-4.9-4.7c-0.7-1.8-0.8-3.8-0.8-5.7c0-5.7,0-11.5,0-17.2c0-0.5,0-0.9,0-1.5c-1.7,0-3.4,0-5.1,0c0-1.6,0-3.1,0-4.7
			c1.6,0,3.3,0,5,0c0-2.7,0-5.4,0-8.1c2-0.5,3.9-1,6-1.6c0,3.3,0,6.4,0,9.6c2.9,0,5.8,0,8.7,0c0,1.6,0,3.1,0,4.7c-2.9,0-5.7,0-8.6,0
			c0,0.5-0.1,0.8-0.1,1.1c0,5.8,0,11.6,0,17.4c0,1,0.2,2.1,0.4,3.1c0.5,1.9,1.7,2.8,3.7,2.9C365.7,127.8,367,127.7,368.4,127.6z"/>
		<path class="st1" d="M174.7,69.3c0-9.5,0-19,0-28.7c0.9-0.1,1.8-0.3,2.7-0.4c2.1-0.1,4.2-0.2,6.3-0.2c2,0,4,0.3,5.9,0.9
			c4.5,1.4,7.4,4.4,8.5,9c0.8,3.5,0.7,7-0.5,10.5c-1.5,4.2-4.4,6.9-8.6,8.2c-1.8,0.6-3.7,1-5.5,1c-2.8,0-5.5-0.1-8.3-0.2
			C175,69.4,174.9,69.3,174.7,69.3z M178.5,43.3c0,7.8,0,15.4,0,23.2c2.8,0.1,5.5,0.3,8.2-0.4c4-1.1,6.5-3.6,7.5-7.6
			c0.5-2,0.6-4,0.4-6.1c-0.4-4.4-2.9-7.6-7.1-8.8C184.5,42.7,181.5,42.8,178.5,43.3z"/>
		<path class="st1" d="M413.2,98.7c1.8,0,3.5,0,5.3,0c0.1,2.2,0.2,4.3,0.3,6.4c0.1,0,0.1,0.1,0.2,0.1c0.1-0.3,0.3-0.5,0.4-0.8
			c0.9-2,2.1-3.6,3.9-4.9c1.8-1.2,3.9-1.7,6-1.5c0.2,0,0.4,0.1,0.6,0.1c0,1.9,0,3.8,0,5.6c-0.6,0-1.2,0-1.7,0
			c-3.2-0.1-5.6,1.4-7.2,4.2c-1.2,2.1-1.6,4.5-1.6,6.9c0,5.3,0,10.6,0,15.9c0,0.4,0,0.8,0,1.3c-2,0-3.9,0-6,0c0-0.5,0-0.9,0-1.4
			c0-8.7,0-17.4,0-26.1c0-1.7-0.1-3.3-0.2-5C413.2,99.4,413.2,99.1,413.2,98.7z"/>
		<path class="st1" d="M345.1,51c0-4.2,0-8.2,0-12.2c1.3,0,2.5,0,3.8,0c0,10.2,0,20.3,0,30.5c-1,0.1-2,0.1-3.2,0
			c-0.1-1.1-0.1-2.1-0.2-3.4c-0.3,0.4-0.4,0.5-0.6,0.7c-1.4,1.9-3.4,2.9-5.8,3.1c-5.3,0.4-8.5-3.3-9.4-7.2c-0.7-3.2-0.6-6.3,0.9-9.2
			c1.7-3.4,4.5-5.3,8.4-5.3c2.3,0,4.3,0.8,5.8,2.6C344.7,50.8,344.8,50.9,345.1,51z M345,58.9C345.1,58.9,345.1,58.9,345,58.9
			c0-0.8,0.1-1.6,0-2.4c-0.2-2.7-1.8-4.7-4.4-5.3c-2.5-0.6-5,0.4-6.3,2.8c-1.8,3.2-1.8,6.6-0.2,9.8c1.3,2.6,3.7,3.4,6.3,2.9
			c2.5-0.5,4.3-2.7,4.5-5.2C345.1,60.6,345,59.8,345,58.9z"/>
		<path class="st1" d="M230.9,65.5c1.8-5.7,3.5-11.3,5.3-16.9c1.1,0,2.1,0,3.3,0c1.7,5.6,3.6,11.2,5.1,17c1.6-5.7,3.1-11.3,4.7-17
			c1.3,0,2.5,0,3.8,0c-2.2,6.9-4.5,13.8-6.7,20.8c-0.6,0-1.2,0-1.7,0c-0.6,0-1.1,0-1.8,0c-1.7-5.5-3.4-11-5.1-16.5
			c-1.3,5.6-3.4,10.9-5.2,16.4c-1.2,0-2.3,0-3.5,0c-2.1-6.9-4.2-13.8-6.3-20.7c1.3,0,2.6,0,3.9,0C228,54.2,229.5,59.8,230.9,65.5z"
			/>
		<path class="st1" d="M437.3,69.4c-1.1,0-2.1,0-3.1,0c-0.2,0-0.4,0-0.6-0.1c0-10.2,0-20.3,0-30.5c0.2,0,0.3-0.1,0.5-0.1
			c1,0,2,0,3.2,0c0,1.4,0,2.9,0,4.3c0,1.4,0,2.8,0,4.3c0,1.4,0,2.8,0,4.5c0.4-0.5,0.6-0.7,0.8-1c2.2-2.3,4.8-3.3,7.9-2.5
			c2.2,0.6,3.8,2,4.6,4.2c0.4,1.1,0.7,2.4,0.7,3.6c0.1,4.2,0,8.3,0,12.5c0,0.2,0,0.4,0,0.7c-1.2,0-2.4,0-3.7,0c0-0.5,0-0.9,0-1.3
			c0-3.3,0-6.5,0-9.8c0-0.9-0.1-1.8-0.2-2.6c-0.3-2-1.2-3.6-3.3-4.2c-2.2-0.5-4.1,0.1-5.6,1.9c-0.9,1.1-1.3,2.4-1.3,3.9
			c0,3.6,0,7.2,0,10.9C437.3,68.4,437.3,68.8,437.3,69.4z"/>
		<path class="st1" d="M372.9,69.9c-4.7,0.2-9.1-3.1-9.9-8.8c-0.3-2.1-0.1-4.1,0.5-6c1.2-4,4.6-6.8,9.4-7c3.4-0.1,6.3,1.1,8.4,3.9
			c1.1,1.5,1.7,3.3,1.9,5.1c0.2,2,0.1,4-0.5,5.9C381.4,67.4,377.2,70,372.9,69.9z M379.5,59c0-1.9-0.5-3.7-1.3-5.1
			c-2.4-4.1-8-3.8-10-0.2c-2,3.4-2.1,7-0.1,10.4c2.4,4,7.5,3.9,10,0C379.1,62.5,379.5,60.8,379.5,59z"/>
		<path class="st1" d="M211.2,69.9c-4.7,0.2-9.1-3.1-9.9-8.7c-0.3-2.3-0.2-4.5,0.7-6.6c1.5-4,4.6-6.1,8.8-6.4
			c2.7-0.2,5.2,0.4,7.3,2.2c2.2,1.8,3.2,4.2,3.5,6.9c0.2,2,0.1,3.9-0.5,5.8C219.6,67.5,215.4,70,211.2,69.9z M217.8,59
			c0-1.9-0.5-3.7-1.3-5.1c-2.4-4.1-8-3.8-10-0.2c-2,3.4-2.1,7-0.1,10.4c2.4,4,7.5,3.9,10,0C217.4,62.5,217.8,60.8,217.8,59z"/>
		<path class="st1" d="M286.5,59.1c0-1.7,0.3-3.3,1-4.9c1.6-3.9,4.7-5.8,8.8-6.1c1.4-0.1,2.8,0.1,4.2,0.5c3,1,5,3.1,6,6.1
			c1,2.9,1,5.9-0.2,8.8c-1.5,3.9-4.6,6-8.7,6.3c-1.3,0.1-2.7,0.1-4-0.4c-3.7-1.2-5.8-3.7-6.7-7.4C286.6,61.1,286.6,60.1,286.5,59.1z
			 M290.4,59.2c0,0.4,0.1,1.1,0.2,1.8c0.1,0.5,0.2,1.1,0.4,1.6c0.2,0.5,0.4,1,0.7,1.5c2.4,4,7.7,4.1,10.1,0.1
			c1.9-3.2,1.8-6.5,0.2-9.8c-1-2.1-2.8-3.3-5.2-3.3c-2.4,0-4.3,1.1-5.4,3.3C290.7,55.7,290.4,57.3,290.4,59.2z"/>
		<path class="st1" d="M471.7,65.9c0.2,1,0.4,1.8,0.6,2.6c-1.2,0.7-2.5,1-3.7,1.1c-1.8,0.1-3.7,0.3-5.5,0c-4.2-0.7-6.8-3.3-7.7-7.4
			c-0.6-2.9-0.4-5.7,0.8-8.5c2.1-4.8,6.8-6.5,11.2-5.4c1.8,0.4,3.2,1.4,4.3,3c1.7,2.5,2.1,5.2,1.8,8.2c-4.9,0-9.7,0-14.7,0
			c0,2,0.4,3.7,1.7,5.2c1.4,1.6,3.2,2.1,5.1,2.2C467.7,67,469.7,66.7,471.7,65.9z M469.9,56.8c0-0.5,0-1-0.1-1.4
			c-0.4-2.1-1.4-3.9-3.7-4.4c-2.3-0.5-4.3,0.1-5.8,1.9c-0.9,1.1-1.4,2.4-1.5,3.9C462.5,56.8,466.1,56.8,469.9,56.8z"/>
		<path class="st1" d="M255.9,48.6c1,0,2,0,3.1,0c0.1,1,0.2,2,0.3,3.2c0.3-0.3,0.5-0.6,0.7-0.8c2.9-3.6,8.7-3.9,11.7-0.6
			c1.4,1.6,2,3.5,2,5.5c0.1,4.3,0,8.7,0,13c0,0.1-0.1,0.1-0.1,0.3c-1.1,0-2.3,0-3.6,0c0-0.4-0.1-0.8-0.1-1.2c0-3.3,0-6.7,0-10
			c0-1-0.1-2-0.3-3c-0.8-3.5-4.3-5-7.3-3.1c-1.6,1-2.5,2.4-2.6,4.3c-0.1,2.3-0.1,4.6-0.1,6.9c0,2,0,4,0,6.1c-1.3,0.2-2.5,0.1-3.8,0
			C255.9,62.4,255.9,55.5,255.9,48.6z"/>
		<path class="st1" d="M321.8,56c0.5-2.8-1.2-5-4.1-5.2c-1.8-0.1-3.4,0.3-5,1c-0.3,0.1-0.6,0.3-1,0.5c-0.3-0.8-0.6-1.6-0.8-2.4
			c1.2-0.8,2.4-1.2,3.7-1.5c2-0.5,4-0.5,6,0c2.3,0.6,3.8,2.1,4.5,4.4c0.3,1.1,0.5,2.2,0.5,3.3c0.1,2.7,0,5.4,0,8.1
			c0,1.7,0.1,3.4,0.2,5.1c-1.1,0-2.1,0-3.3,0c-0.1-0.7-0.2-1.5-0.4-2.5c-0.4,0.4-0.6,0.6-0.9,0.9c-2.2,2-4.7,2.6-7.5,1.9
			c-5.2-1.2-5.6-7.5-2.8-10.4c1.4-1.5,3.2-2.2,5.2-2.6c1.5-0.3,3-0.4,4.5-0.5C321,56.1,321.4,56.1,321.8,56z M321.9,58.8
			c-0.9,0-1.7-0.1-2.4,0c-1.6,0.2-3.3,0.4-4.7,1.4c-1.5,1-2.1,2.8-1.5,4.6c0.5,1.6,1.7,2.3,3.7,2.3c0.2,0,0.4,0,0.6,0
			c2.1-0.2,4.1-2,4.3-4.1C322,61.6,321.9,60.2,321.9,58.8z"/>
		<path class="st1" d="M405.1,69.3c-1.2,0-2.3,0-3.6,0c0-0.4,0-0.8,0-1.2c0-3.3,0-6.7,0-10c0-0.9-0.1-1.8-0.2-2.6
			c-0.3-1.9-1.2-3.5-3.2-4c-2.1-0.5-4-0.1-5.5,1.6c-1.1,1.2-1.5,2.7-1.5,4.3c0,3.6,0,7.2,0,10.7c0,0.4,0,0.8,0,1.3
			c-1.3,0-2.4,0-3.7,0c0-6.9-0.1-13.7-0.1-20.7c1,0,2,0,3.2,0c0.1,1,0.2,2,0.3,3.2c0.3-0.3,0.5-0.5,0.6-0.7c2.3-2.7,5.1-3.6,8.5-2.8
			c2.1,0.5,3.7,1.9,4.5,4c0.4,1.1,0.8,2.3,0.8,3.5c0.1,4.3,0,8.6,0,12.9C405.1,68.9,405.1,69.1,405.1,69.3z"/>
		<path class="st1" d="M425,48.5c1.9,0,3.7,0,5.5,0c0,0.9,0,1.8,0,2.8c-1.8,0.2-3.6,0-5.4,0.1c0,0.3-0.1,0.6-0.1,0.8
			c0,3.4,0,6.8,0,10.3c0,0.7,0.1,1.4,0.2,2.1c0.3,1.5,1.2,2.2,2.7,2.2c0.7,0,1.4-0.1,2.1-0.1c0.1,0.3,0.1,0.7,0.2,1
			c0,0.6,0.1,1.1,0.1,1.8c-2.1,0.5-4.1,0.8-6-0.1c-1.7-0.7-2.5-2.2-2.7-3.9c-0.2-1-0.2-2-0.2-3c0-3.2,0-6.5,0-9.7c0-0.4,0-0.8,0-1.4
			c-1.1,0-2.1,0-3.2,0c0-1,0-1.8,0-2.9c1,0,2,0,3.1,0c0-1.7,0-3.3,0-5c1.2-0.3,2.4-0.7,3.7-1C425,44.5,425,46.5,425,48.5z"/>
		<path class="st1" d="M278.9,38.8c1.2,0,2.4,0,3.7,0c0,10.2,0,20.3,0,30.5c-1.2,0-2.4,0-3.7,0C278.9,59.1,278.9,49,278.9,38.8z"/>
		<path class="st0" d="M231.4,115.6c0-1.8,0-3.7,0.5-5.5c1.3-4.6,5.3-7.6,9.8-7.3c2.9,0.2,5.3,1.5,7,3.9c1.3,1.8,2,3.8,2.2,6
			c0.4,3.1,0.2,6.2-1.1,9.2c-1.3,3.1-3.6,5.3-7,5.9c-5.7,1-9.9-2.4-11.1-6.7c-0.3-1-0.3-2-0.4-3
			C231.3,117.3,231.4,116.5,231.4,115.6z"/>
		<path class="st0" d="M280.2,128.1c-4.9,0.1-9.2-4-9.3-8.8c-0.1-2.2-0.1-4.5,0-6.7c0.1-2.8,1.2-5.2,3.3-7.2
			c4.2-4,10.8-3.3,14.1,1.5c1.4,2.1,2.1,4.5,2.2,7.1c0.2,2.8-0.1,5.6-1.3,8.2c-1.3,3-3.5,5-6.8,5.6C281.6,128,280.9,128,280.2,128.1
			z"/>
		<path class="st0" d="M206.1,112.7c-4.6,0-9.2,0-13.9,0c0.1-0.4,0.2-0.8,0.3-1.2c1.6-4.7,3.2-9.4,4.7-14.1c0.6-1.8,1-3.6,1.5-5.4
			c0.1-0.3,0.2-0.6,0.4-1C201,98.4,203.8,105.4,206.1,112.7z"/>
		<path class="st0" d="M399.6,116.7c0,1.5-0.5,4.1-1.9,6.5c-1.3,2.3-3.2,4.1-5.8,4.8c-3.3,0.9-6.3,0.2-8.8-2.2
			c-1.8-1.7-2.9-3.9-3.4-6.3c-0.8-3.8-0.6-7.5,1-11c1.4-3,3.6-5,6.8-5.6c4.1-0.7,7.5,0.6,9.7,4C398.8,109.1,399.6,112.2,399.6,116.7
			z"/>
		<path class="st0" d="M438.9,112.2c0.4-2.6,1.2-4.8,2.8-6.7c2.4-2.9,5.5-3.6,9-2.8c3.3,0.8,4.9,3.2,5.7,6.3c0.2,1,0.3,2,0.4,3.1
			C450.7,112.2,444.9,112.2,438.9,112.2z"/>
		<path class="st0" d="M178.5,43.3c3.1-0.5,6-0.6,9,0.3c4.2,1.2,6.8,4.4,7.1,8.8c0.2,2,0.1,4.1-0.4,6.1c-1,4-3.6,6.5-7.5,7.6
			c-2.7,0.7-5.4,0.5-8.2,0.4C178.5,58.7,178.5,51.1,178.5,43.3z"/>
		<path class="st0" d="M345,58.9c0,0.8,0.1,1.7,0,2.5c-0.2,2.6-2,4.8-4.5,5.2c-2.6,0.5-5-0.3-6.3-2.9c-1.6-3.3-1.6-6.6,0.2-9.8
			c1.3-2.3,3.8-3.4,6.3-2.8c2.5,0.6,4.2,2.6,4.4,5.3C345.1,57.3,345.1,58.1,345,58.9C345.1,58.9,345.1,58.9,345,58.9z"/>
		<path class="st0" d="M379.5,59c0,1.8-0.4,3.6-1.4,5.2c-2.5,3.9-7.6,3.9-10,0c-2-3.4-1.9-7,0.1-10.4c2.1-3.6,7.7-3.9,10,0.2
			C379,55.3,379.5,57.1,379.5,59z"/>
		<path class="st0" d="M217.8,59c0,1.8-0.4,3.6-1.4,5.2c-2.5,3.9-7.6,3.9-10,0c-2-3.4-1.9-7,0.1-10.4c2.1-3.6,7.7-3.9,10,0.2
			C217.3,55.3,217.8,57.1,217.8,59z"/>
		<path class="st0" d="M290.4,59.2c0.1-1.9,0.3-3.5,1.1-5c1.1-2.2,3-3.3,5.4-3.3c2.4,0,4.1,1.2,5.2,3.3c1.6,3.3,1.7,6.6-0.2,9.8
			c-2.4,4.1-7.7,4-10.1-0.1c-0.3-0.5-0.5-1-0.7-1.5c-0.2-0.5-0.3-1-0.4-1.6C290.4,60.3,290.4,59.6,290.4,59.2z"/>
		<path class="st0" d="M469.9,56.8c-3.7,0-7.4,0-11,0c0.1-1.5,0.6-2.8,1.5-3.9c1.4-1.9,3.4-2.5,5.8-1.9c2.3,0.5,3.3,2.3,3.7,4.4
			C469.9,55.8,469.9,56.3,469.9,56.8z"/>
		<path class="st0" d="M321.9,58.8c0,1.5,0.1,2.8,0,4.2c-0.2,2-2.2,3.8-4.3,4.1c-0.2,0-0.4,0-0.6,0c-2,0.1-3.2-0.7-3.7-2.3
			c-0.6-1.8,0-3.6,1.5-4.6c1.4-1,3.1-1.2,4.7-1.4C320.3,58.7,321,58.8,321.9,58.8z"/>
	</g>
</g>
</svg>
