<?xml version="1.0" encoding="utf-8"?>
<!-- Generator: Adobe Illustrator 21.1.0, SVG Export Plug-In . SVG Version: 6.00 Build 0)  -->
<svg version="1.1" id="Layer_1" xmlns="http://www.w3.org/2000/svg" xmlns:xlink="http://www.w3.org/1999/xlink" x="0px" y="0px"
	 viewBox="0 0 1219.7 217.7" style="enable-background:new 0 0 1219.7 217.7;" xml:space="preserve">
<style type="text/css">
	.st0{fill:#FFFFFF;}
	.st1{fill:#010101;}
	.st2{fill:none;stroke:#010101;stroke-width:7;}
</style>
<rect class="st0" width="1219.7" height="217.7"/>
<g>
	<path d="M185.7,188.1h-40.8l-14.7-86.4l-13.7,86.4H72.2l-16.4-88l-12.7,88l-19.2-0.2c3-5,5.2-11.9,6.8-20.8
		c1.1-7.3,2.2-14.6,3.3-21.8c2.2-10.5,4.9-27.3,8.2-50.6c3.8-27.2,5.5-43.5,5.2-48.9c-0.2-1.6-1.4-6.2-3.8-14.1L86,31.9l19.4,119.4
		c0.3-0.2,1,0.2,2,0.9l0.2-0.9l17-105.8c-0.2-2.3-1.8-7-5-13.8h41.3L185.7,188.1z"/>
	<path d="M337,134.1c-14.9,36-34.8,53.9-59.8,53.9c-27.2,0-40.4,0-39.6,0c-1.9-0.2-7-5.4-15.5-15.7c-7.2-8.8-13.4-18.7-18.5-29.8
		c-6.7-14.4-10.1-27.8-10.1-40.3c0-19.2,5.4-35.4,16.2-48.6c11.3-14.1,26.1-21.5,44.6-22.3c9.9-0.5,22.7-0.7,38.5-0.7l13.8,7.7
		c18.4,11.3,29.8,29.4,34,54.4c0.6,3.9,0.9,8.4,0.9,13.4C341.5,117.7,340,127,337,134.1z M302.8,96.6c-1.7-11.7-5.9-22.4-12.4-32.1
		c-8.6-12.5-18.9-18.8-31-18.8c-6.7,0-12.9,7-18.5,20.9c-5.2,13-7.4,24.9-6.6,35.9c0.8,11.1,2.9,20.8,6.3,29.1
		c3,7,9.1,17.7,18.3,31.9c0.8,1.3,3.1,3.8,6.9,7.7s6.3,5.9,7.4,5.9c2.5,0,6.4-2.8,11.7-8.4c4.5-4.5,7.2-7.6,8-9.1
		c7.8-14.7,11.7-28.5,11.7-41.5C304.7,111.9,304,104.7,302.8,96.6z"/>
	<path d="M471.2,110.7c0,21.7-8.2,40.1-24.7,55c-16.5,14.9-35.8,22.4-57.8,22.4h-39.2V31.9l60.3-0.2c0.5,0,4.5,2,12,5.9
		C454.7,54.2,471.2,78.6,471.2,110.7z M428,112.1c0-13.6-3.3-27-9.9-40.1c-7.4-14.7-16.7-24.3-28.1-28.9v135.8
		c11.9-6.1,21.3-15.4,28.1-27.9C424.7,139,428,126,428,112.1z"/>
	<path d="M563.4,31.6c-1.3,3.8-3,8.9-5.2,15.5h-34.9c-1.4,0-3.1,0.7-5.2,2.2c-2,1.5-2.9,3.3-2.6,5.3v79.2h41
		c-0.9,3-2.8,7.3-5.6,12.9c-17.4-0.2-27.1-0.2-29.1,0c-1.1,0.5-2.2,0.9-3.3,1.4c-1.9,1.1-2.9,2.9-3,5.4v13.6c0,0.9,0.7,2.1,2.1,3.4
		c1.4,1.3,2.7,2,3.8,2h38.7l4.7,16h-88.7V31.6H563.4z"/>
	<path d="M689.1,188.1h-46.5c-7.8-9.8-14.1-18.7-18.9-26.6c-6.2-10.1-10.4-16.6-12.4-19.4v46h-39.9V31.6H637
		c31.3,0,46.9,12.4,46.9,37.3c0,12-4.5,21-13.4,27c-9.1,4.8-18.1,9.7-27,14.5c-2.7,1.9-4.1,4.6-4.2,8.2c-0.2,2.3,1.6,6,5.4,11
		c2.7,3.3,5.3,6.6,8,9.9C659.1,149.7,671.3,165.9,689.1,188.1z M648.3,76.1c0-8.5-2.8-16.3-8.3-23.4S627.6,42,619.2,42h-8v85.6
		c0.9-2,2-4.1,3-6.1c1.6-3.3,3.8-5.8,6.6-7.5c10.3-6.3,17.5-12,21.5-17.3S648.3,84.5,648.3,76.1z"/>
	<path d="M797,31.6c-1.4,4.5-2.2,8.9-2.3,13.1V188h-43.9L710.2,83.2H709V188c-6.3,0.9-12.1,0.9-17.6,0c1.6-5.8,2.3-9.5,2.3-11V45.7
		c0-0.6-0.4-2.7-1.2-6.1c-1.1-4.1-1.8-6.7-2.1-8h41.2l47,117c0.4,0,0.9-0.7,1.3-2.1V31.9C781.2,31.7,786.8,31.6,797,31.6z"/>
</g>
<g id="Layer_1_1_">
	<rect x="956.6" y="31.3" class="st1" width="32.9" height="153.6"/>
	<rect x="1027.5" y="31.3" class="st1" width="32.9" height="153.6"/>
	<path class="st1" d="M838.9,31.3h36.9l38.9,154.6h-36.9L838.9,31.3z"/>
	<path class="st1" d="M942.7,31.3h-19.9c-1,1-1,4,0,5c2,6,1,13,0,19L892.9,186h15L942.7,31.3z"/>
	<path class="st1" d="M1031.4,130h-72.8l-9,14h57.9C1016.5,144,1028.5,137,1031.4,130z"/>
	<path class="st1" d="M1138.2,96.1c-50.9-10-33.9-51.9-5-51.9h46.9l6-13h-60.8c-18,0-56.9,18-51.9,52.9c2,22.9,18,31.9,46.9,39.9
		c49.9,12,33.9,47.9,12,47.9h-53.9l6,14h50.9c26.9,0,50.9-19,50.9-45.9C1185.1,112.1,1170.1,102.1,1138.2,96.1z"/>
	<rect x="12.4" y="14.3" class="st2" width="1192.6" height="189.5"/>
</g>
</svg>
