<?xml version="1.0" encoding="utf-8"?>
<!-- Generator: Adobe Illustrator 21.1.0, SVG Export Plug-In . SVG Version: 6.00 Build 0)  -->
<svg version="1.1" id="Layer_1" xmlns="http://www.w3.org/2000/svg" xmlns:xlink="http://www.w3.org/1999/xlink" x="0px" y="0px"
	 viewBox="0 0 423 402.4" style="enable-background:new 0 0 423 402.4;" xml:space="preserve">
<style type="text/css">
	.st0{fill:#C9302C;}
	.st1{fill:none;stroke:#C9302C;stroke-width:6.0754;}
</style>
<g>
	<path class="st0" d="M166.5,201.2h-36.7l-13.2-86l-12.3,86H64.4l-14.8-87.6l-11.4,87.6L20.9,201c2.7-5,4.7-11.8,6.1-20.7
		c1-7.3,2-14.5,3-21.7c2-10.5,4.4-27.2,7.4-50.4c3.4-27.1,5-43.3,4.7-48.7c-0.2-1.6-1.3-6.2-3.4-14l38.2,0.2l17.5,118.9
		c0.3-0.2,0.9,0.2,1.8,0.9l0.2-0.9l15.3-105.3c-0.2-2.3-1.6-7-4.5-13.7h37.2L166.5,201.2z"/>
	<path class="st0" d="M286.5,147.4c-13.4,35.8-31.3,53.7-53.8,53.7c-24.5,0-36.4,0-35.6,0c-1.7-0.2-6.3-5.4-14-15.6
		c-6.5-8.8-12.1-18.6-16.7-29.7c-6-14.3-9.1-27.7-9.1-40.1c0-19.1,4.9-35.2,14.6-48.4c10.2-14,23.5-21.4,40.1-22.2
		c8.9-0.5,20.4-0.7,34.7-0.7l12.4,7.7c16.6,11.3,26.8,29.3,30.6,54.2c0.5,3.9,0.8,8.4,0.8,13.3C290.6,131.1,289.2,140.4,286.5,147.4
		z M255.7,110.1c-1.5-11.6-5.3-22.3-11.2-32c-7.7-12.4-17-18.7-27.9-18.7c-6,0-11.6,7-16.7,20.8c-4.7,12.9-6.7,24.8-5.9,35.7
		c0.7,11.1,2.6,20.7,5.7,29c2.7,7,8.2,17.6,16.5,31.8c0.7,1.3,2.8,3.8,6.2,7.7c3.4,3.9,5.7,5.9,6.7,5.9c2.3,0,5.8-2.8,10.5-8.4
		c4.1-4.5,6.5-7.6,7.2-9.1c7-14.6,10.5-28.4,10.5-41.3C257.4,125.3,256.8,118.2,255.7,110.1z"/>
	<path class="st0" d="M402.1,124.1c0,21.6-7.4,39.9-22.2,54.8s-32.2,22.3-52,22.3h-35.3V45.7l54.3-0.2c0.5,0,4.1,2,10.8,5.9
		C387.3,67.9,402.1,92.2,402.1,124.1z M363.2,125.5c0-13.5-3-26.9-8.9-39.9c-6.7-14.6-15-24.2-25.3-28.8V192
		c10.7-6.1,19.2-15.3,25.3-27.8C360.3,152.3,363.2,139.4,363.2,125.5z"/>
</g>
<g>
	<polygon class="st0" points="153,224.5 185.9,224.5 191,378.1 158.1,378.1 	"/>
	<polygon class="st0" points="223.9,224.5 256.8,224.5 261.9,378.1 229,378.1 	"/>
	<path class="st0" d="M35.3,224.5h36.9l43.9,154.6H79.3L35.3,224.5z"/>
	<path class="st0" d="M139.1,224.5h-19.9c-1,1-1,4,0,5c2,6,1,13,0,19L94.4,379.2h15L139.1,224.5z"/>
	<path class="st0" d="M227.8,323.2H155l-9,14h57.9C212.9,337.2,224.9,330.2,227.8,323.2z"/>
	<path class="st0" d="M339.7,289.3c-50.9-10-33.9-51.9-5-51.9h46.9l6-13h-60.8c-18,0-56.9,18-51.9,52.9c2,22.9,18,31.9,46.9,39.9
		c49.9,12,33.9,47.9,12,47.9h-53.9l6,14h50.9c26.9,0,50.9-19,50.9-45.9C386.6,305.3,371.6,295.3,339.7,289.3z"/>
</g>
<g id="Layer_1_2_">
	<rect class="st1" width="423" height="402.4"/>
</g>
</svg>
